<?xml version="1.0" encoding="UTF-8"?>
<svg version="1.1" xmlns="http://www.w3.org/2000/svg" width="512" height="512">
<path d="M0 0 C0.78769775 -0.00095673 1.57539551 -0.00191345 2.38696289 -0.00289917 C4.05127034 -0.00357924 5.71558047 -0.00173703 7.37988281 0.00244141 C9.92779496 0.00779212 12.47553083 0.00249058 15.0234375 -0.00390625 C16.64062539 -0.00324544 18.25781317 -0.00196421 19.875 0 C21.01884155 -0.00303635 21.01884155 -0.00303635 22.18579102 -0.00613403 C25.36896916 0.00798156 27.89522317 0.11872022 30.9375 1.1328125 C30.9375 1.7928125 30.9375 2.4528125 30.9375 3.1328125 C31.45594482 2.92060059 31.97438965 2.70838867 32.50854492 2.48974609 C38.84687358 0.11208935 44.51796353 -0.33907537 51.25 -0.2421875 C52.77294678 -0.22696045 52.77294678 -0.22696045 54.32666016 -0.21142578 C65.41036786 0.01789231 75.45319762 1.38549401 83.9375 9.1328125 C89.13331791 15.93067426 89.63972968 22.86430528 88.9375 31.1328125 C86.63956792 41.05987908 81.23038116 48.26892435 73.9375 55.1328125 C74.515 55.3596875 75.0925 55.5865625 75.6875 55.8203125 C79.07972063 57.79910787 81.19243471 60.64268192 82.9375 64.1328125 C83.05343506 63.48207764 83.16937012 62.83134277 83.28881836 62.16088867 C83.81523979 59.21361268 84.34507995 56.26696136 84.875 53.3203125 C85.14860352 51.78407227 85.14860352 51.78407227 85.42773438 50.21679688 C85.60498047 49.23388672 85.78222656 48.25097656 85.96484375 47.23828125 C86.20835571 45.87932739 86.20835571 45.87932739 86.45678711 44.49291992 C86.9375 42.1328125 86.9375 42.1328125 87.9375 39.1328125 C91.13662001 38.06643916 93.4512746 38.00359544 96.8125 38 C97.96234375 37.99871094 99.1121875 37.99742187 100.296875 37.99609375 C102.09898437 38.00189453 102.09898437 38.00189453 103.9375 38.0078125 C105.13890625 38.00394531 106.3403125 38.00007813 107.578125 37.99609375 C108.72796875 37.99738281 109.8778125 37.99867188 111.0625 38 C112.64417969 38.00169189 112.64417969 38.00169189 114.2578125 38.00341797 C116.9375 38.1328125 116.9375 38.1328125 119.9375 39.1328125 C120.2675 39.7928125 120.5975 40.4528125 120.9375 41.1328125 C121.54335937 40.85566406 122.14921875 40.57851562 122.7734375 40.29296875 C129.66370421 37.31425345 136.62599942 34.83936233 144.0625 37.0703125 C144.68125 37.4209375 145.3 37.7715625 145.9375 38.1328125 C146.2675 41.1028125 146.5975 44.0728125 146.9375 47.1328125 C147.9275 46.2459375 148.9175 45.3590625 149.9375 44.4453125 C160.87162337 36.52230744 172.58372941 35.66820708 185.6875 35.5703125 C186.90655029 35.55564941 188.12560059 35.54098633 189.3815918 35.52587891 C198.44176658 35.6277959 207.83507198 36.88868619 215.4375 42.2578125 C218.81452805 46.14139476 220.3378688 50.28687093 221.9375 55.1328125 C222.33839844 54.62492187 222.73929688 54.11703125 223.15234375 53.59375 C231.50310487 43.48194402 242.34863956 37.34669225 255.47607422 35.84179688 C268.67858258 34.88792107 279.86931499 35.90786577 290.4375 44.5703125 C295.82204535 49.74304344 298.53687889 55.17101127 300.9375 62.1328125 C301.50017578 61.24529297 301.50017578 61.24529297 302.07421875 60.33984375 C305.01870694 55.79331664 307.84531533 51.73783233 311.9375 48.1328125 C312.44152344 47.66359375 312.94554687 47.194375 313.46484375 46.7109375 C324.18587269 37.60861971 337.44521715 34.94394088 351.13671875 35.60546875 C359.94500364 36.36416924 368.34186005 39.05947921 374.9375 45.1328125 C374.9375 45.7928125 374.9375 46.4528125 374.9375 47.1328125 C375.5975 47.1328125 376.2575 47.1328125 376.9375 47.1328125 C378.4453125 49.3203125 378.4453125 49.3203125 380.0625 52.1328125 C380.60132813 53.0609375 381.14015625 53.9890625 381.6953125 54.9453125 C382.10523438 55.6671875 382.51515625 56.3890625 382.9375 57.1328125 C383.06801758 56.36727051 383.19853516 55.60172852 383.33300781 54.81298828 C383.93985359 51.29253883 384.56355274 47.77526956 385.1875 44.2578125 C385.39246094 43.05382812 385.59742188 41.84984375 385.80859375 40.609375 C387.72064153 29.9482601 389.64443363 20.862533 398.31640625 13.828125 C405.7655429 9.0100545 414.13837961 7.11431849 422.9375 8.1328125 C423.9275 8.4628125 424.9175 8.7928125 425.9375 9.1328125 C426.2675 11.7728125 426.5975 14.4128125 426.9375 17.1328125 C427.39898437 16.73449219 427.86046875 16.33617187 428.3359375 15.92578125 C436.33678468 9.42706941 444.66805693 7.15297573 454.9375 8.1328125 C455.9275 8.4628125 456.9175 8.7928125 457.9375 9.1328125 C458.92892318 14.36981336 458.79492104 18.76571514 457.8293457 24.02075195 C457.63437752 25.15398895 457.63437752 25.15398895 457.43547058 26.31011963 C457.00559607 28.79081769 456.5600132 31.26838035 456.11328125 33.74609375 C455.80691507 35.48322027 455.50119542 37.22046092 455.1960907 38.95780945 C454.55485305 42.59450531 453.90581676 46.22969929 453.2512207 49.86401367 C452.41723166 54.49787226 451.6026448 59.13488839 450.79395771 63.77322102 C450.16607942 67.36165303 449.52780879 70.94817816 448.88649559 74.53423119 C448.58236091 76.24191543 448.28137325 77.95016351 447.98372841 79.65899086 C443.68613474 104.23711216 443.68613474 104.23711216 435.9375 110.1328125 C429.13651058 114.0143528 423.74255117 116.27731077 415.875 116.2578125 C414.83214844 116.26039063 413.78929687 116.26296875 412.71484375 116.265625 C409.9375 116.1328125 409.9375 116.1328125 406.9375 115.1328125 C406.6075 113.1528125 406.2775 111.1728125 405.9375 109.1328125 C405.29683594 109.47054687 404.65617187 109.80828125 403.99609375 110.15625 C395.18385766 114.70026444 387.90779794 116.81549214 377.9375 116.1328125 C376.9475 115.8028125 375.9575 115.4728125 374.9375 115.1328125 C373.7311634 109.90535391 374.18137423 105.36752936 374.9375 100.1328125 C373.8546875 101.2465625 373.8546875 101.2465625 372.75 102.3828125 C368.03202215 106.9959464 363.66234408 109.95490625 357.5 112.3203125 C356.85740234 112.58005859 356.21480469 112.83980469 355.55273438 113.10742188 C343.98223612 117.65339429 328.14137073 118.13189944 316.29296875 114.1640625 C308.28886129 110.65977665 302.85488638 106.03804184 298.9375 98.1328125 C298.0625 94.5703125 298.0625 94.5703125 297.9375 92.1328125 C297.2775 92.1328125 296.6175 92.1328125 295.9375 92.1328125 C295.751875 92.7928125 295.56625 93.4528125 295.375 94.1328125 C290.80089556 103.67876959 282.30744334 109.67385314 272.61230469 113.32763672 C258.75424238 118.07070325 242.35705996 118.42625693 228.9375 112.1328125 C222.81406832 108.53369404 218.85750961 104.01282691 214.9375 98.1328125 C214.68355469 99.34839844 214.42960938 100.56398438 214.16796875 101.81640625 C213.82100358 103.40119313 213.47330958 104.98582056 213.125 106.5703125 C212.95935547 107.37275391 212.79371094 108.17519531 212.62304688 109.00195312 C212.16050247 111.07031208 211.55773759 113.10614987 210.9375 115.1328125 C202.98644055 117.78316565 194.62858538 115.92259056 186.9375 113.1328125 C185.9475 112.4728125 184.9575 111.8128125 183.9375 111.1328125 C179.83184199 111.4866517 176.42075077 112.66273006 172.625 114.1953125 C162.59811362 117.60420413 150.57137207 118.03069011 140.88671875 113.328125 C135.47133441 110.00726807 132.81449169 106.15894372 130.9375 100.1328125 C129.78619849 91.91925906 131.59679675 83.80633518 136.4453125 77.0234375 C140.62542976 72.47391453 145.2188267 70.33230223 150.9375 68.1328125 C147.9675 67.4728125 144.9975 66.8128125 141.9375 66.1328125 C141.6075 68.1128125 141.2775 70.0928125 140.9375 72.1328125 C137.50373086 72.81956633 134.35898428 73.15325397 130.875 73.0078125 C126.67705917 73.14108046 125.12052735 73.48028971 121.9375 76.1328125 C116.24732355 82.49242148 115.63718761 91.2622043 114.15625 99.39453125 C114.02549072 100.10947754 113.89473145 100.82442383 113.76000977 101.56103516 C113.50827256 102.95652446 113.26366471 104.35332358 113.02709961 105.75146484 C111.86820789 112.32263625 111.86820789 112.32263625 109.9375 115.1328125 C106.61753736 116.23946671 104.12061401 116.26216106 100.625 116.265625 C99.38492188 116.26691406 98.14484375 116.26820313 96.8671875 116.26953125 C95.57039063 116.26566406 94.27359375 116.26179688 92.9375 116.2578125 C90.99230469 116.26361328 90.99230469 116.26361328 89.0078125 116.26953125 C87.76773438 116.26824219 86.52765625 116.26695312 85.25 116.265625 C83.54263672 116.26393311 83.54263672 116.26393311 81.80078125 116.26220703 C78.9375 116.1328125 78.9375 116.1328125 75.9375 115.1328125 C74.4263005 110.09548084 75.29150227 105.25110223 75.9375 100.1328125 C75.42703125 100.65230469 74.9165625 101.17179687 74.390625 101.70703125 C60.9357863 114.61317972 43.19316908 116.62976041 25.23828125 116.4609375 C23.78574318 116.45786925 22.33320213 116.45600125 20.88066101 116.45526123 C17.86962227 116.4507076 14.85885842 116.43646279 11.84790039 116.4140625 C7.99006745 116.38550194 4.13244671 116.37481735 0.27451801 116.3703804 C-3.42508803 116.3652356 -7.12464102 116.35071325 -10.82421875 116.3359375 C-11.52582312 116.33405678 -12.22742748 116.33217606 -12.95029259 116.33023834 C-14.92871948 116.32337228 -16.90711532 116.30884191 -18.88549805 116.29394531 C-20.57088936 116.28370331 -20.57088936 116.28370331 -22.29032898 116.27325439 C-25.0625 116.1328125 -25.0625 116.1328125 -28.0625 115.1328125 C-29.34058753 108.24365902 -28.58127855 102.43733762 -27.33203125 95.58203125 C-27.14033859 94.48744095 -26.94864594 93.39285065 -26.75114441 92.26509094 C-26.34393692 89.95704751 -25.93092324 87.6500218 -25.51245117 85.34399414 C-24.87939885 81.84462834 -24.26944072 78.34180103 -23.66210938 74.83789062 C-23.26179834 72.58569148 -22.86014861 70.33372979 -22.45703125 68.08203125 C-22.27767532 67.04833908 -22.0983194 66.01464691 -21.91352844 64.94963074 C-20.77967704 58.79216131 -19.13521757 53.26805953 -16.65800476 47.50959778 C-15.91698454 44.55202957 -16.56371463 43.69679914 -18.0625 41.1328125 C-17.9609375 37.98046875 -17.9609375 37.98046875 -17.4375 34.1953125 C-17.2974353 33.17304565 -17.2974353 33.17304565 -17.15454102 32.13012695 C-13.94812418 9.78968503 -13.94812418 9.78968503 -11.0625 1.1328125 C-7.3384209 -0.1085472 -3.87805854 -0.01029437 0 0 Z M26.9375 31.1328125 C25.1880382 37.53496321 25.1880382 37.53496321 24.9375 44.1328125 C27.6677389 44.2411792 30.39364543 44.32027944 33.125 44.3828125 C33.89392578 44.41632813 34.66285156 44.44984375 35.45507812 44.484375 C39.40970923 44.55226566 41.45922008 44.4167912 44.9375 42.3515625 C47.59669542 39.40151758 47.7129111 37.02568683 47.9375 33.1328125 C44.83664429 31.06557536 44.20818319 30.88783827 40.70703125 30.9375 C39.90458984 30.94394531 39.10214844 30.95039063 38.27539062 30.95703125 C37.44201172 30.97378906 36.60863281 30.99054688 35.75 31.0078125 C34.4825293 31.02134766 34.4825293 31.02134766 33.18945312 31.03515625 C31.10534757 31.05870547 29.02138783 31.09457603 26.9375 31.1328125 Z M178.9375 60.1328125 C176.60295339 61.96639585 176.60295339 61.96639585 174.9375 64.1328125 C179.95285052 63.80321034 179.95285052 63.80321034 183.9375 61.1328125 C181.64455512 60.27306449 181.64455512 60.27306449 178.9375 60.1328125 Z M336.9375 64.1328125 C340.8975 64.1328125 344.8575 64.1328125 348.9375 64.1328125 C348.2775 63.1428125 347.6175 62.1528125 346.9375 61.1328125 C341.91963568 60.58540912 340.61035119 60.45996131 336.9375 64.1328125 Z M251.9375 69.1328125 C249.25252609 74.15254632 249.12179971 80.54570405 249.9375 86.1328125 C251.69451435 88.44546387 252.4320206 89.03969787 255.3125 89.5703125 C258.8471821 88.98119882 260.3855341 87.61762141 262.9375 85.1328125 C263.94318242 83.46956849 264.94414799 81.80344997 265.9375 80.1328125 C269.29485137 79.01369538 271.81955386 79.01915664 275.35546875 79.03515625 C276.60908203 79.03837891 277.86269531 79.04160156 279.15429688 79.04492188 C281.11979492 79.05749023 281.11979492 79.05749023 283.125 79.0703125 C284.46028481 79.07532933 285.79557141 79.07989191 287.13085938 79.08398438 C290.39978473 79.09578555 293.66861991 79.11224953 296.9375 79.1328125 C297.2675 76.8228125 297.5975 74.5128125 297.9375 72.1328125 C287.3775 72.1328125 276.8175 72.1328125 265.9375 72.1328125 C265.6075 69.4928125 265.2775 66.8528125 264.9375 64.1328125 C263.91267404 62.92465635 263.91267404 62.92465635 261.8125 62.6953125 C257.3973776 63.36717895 254.86430475 65.86655875 251.9375 69.1328125 Z M19.9375 70.1328125 C18.47079887 75.35793529 17.71172598 79.7142359 17.9375 85.1328125 C20.97971065 85.21413892 24.0197238 85.27346624 27.0625 85.3203125 C27.9184375 85.34544922 28.774375 85.37058594 29.65625 85.39648438 C34.84359711 85.45633838 38.4831379 85.10932549 42.9375 82.1328125 C45.25317384 78.65930175 45.53337577 77.21881778 44.9375 73.1328125 C40.4280152 69.11918391 35.30003417 69.78889813 29.625 69.9453125 C28.69365234 69.95884766 27.76230469 69.97238281 26.80273438 69.98632812 C24.51372354 70.02154368 22.22591542 70.07079151 19.9375 70.1328125 Z M331.9375 86.1328125 C333.51586298 89.81658473 333.51586298 89.81658473 334.9375 91.1328125 C339.86779031 91.50660106 339.86779031 91.50660106 344.375 89.7578125 C346.16853624 88.26825749 346.16853624 88.26825749 345.9375 86.1328125 C341.3175 86.1328125 336.6975 86.1328125 331.9375 86.1328125 Z M168.9375 89.1328125 C168.6075 90.1228125 168.2775 91.1128125 167.9375 92.1328125 C170.96820628 93.41503439 171.97346914 93.11870696 175.125 91.8828125 C178.21040804 90.3781252 178.21040804 90.3781252 178.9375 87.1328125 C174.98970686 87.1328125 172.5412898 87.61121236 168.9375 89.1328125 Z " fill="#F5FAFC" transform="translate(41.0625,197.8671875)"/>
<path d="M0 0 C0.88123535 0.00418945 1.7624707 0.00837891 2.67041016 0.01269531 C11.90626581 0.17196342 21.03672121 1.10146932 28.3125 7.3125 C33.27200315 12.46171092 34.68843691 16.5168843 34.5859375 23.55859375 C33.62179294 33.26890682 28.13276581 40.28281918 20.859375 46.36328125 C18.70406068 48.05432188 16.5296272 49.70370022 14.3125 51.3125 C14.91578125 51.54324219 15.5190625 51.77398437 16.140625 52.01171875 C22.09253836 54.44048339 25.58840639 56.60726609 28.38671875 62.62109375 C31.03232052 70.31231577 29.60362692 78.43185995 26.5625 85.78125 C22.08727019 94.84359037 15.33972105 101.12199015 5.765625 104.6015625 C-1.947917 106.86355056 -9.27810699 108.44170115 -17.33544922 108.42602539 C-18.63634491 108.42594986 -19.9372406 108.42587433 -21.27755737 108.42579651 C-22.68243448 108.42069101 -24.08731119 108.41547504 -25.4921875 108.41015625 C-26.94092764 108.40828923 -28.38966842 108.40686667 -29.83840942 108.40586853 C-33.63596363 108.40206573 -37.43347908 108.39225474 -41.23101807 108.38116455 C-45.11234005 108.37090215 -48.99366834 108.36636059 -52.875 108.36132812 C-60.47918426 108.3506303 -68.08333668 108.33358098 -75.6875 108.3125 C-74.62143523 100.11230889 -73.54629164 91.92286055 -72.13671875 83.7734375 C-71.9960347 82.95984772 -71.85535065 82.14625793 -71.71040344 81.30801392 C-71.41566281 79.61582226 -71.11905291 77.92395509 -70.82055664 76.23242188 C-70.52306862 74.53323548 -70.23141621 72.83301725 -69.94555664 71.13183594 C-65.81802149 46.57853498 -56.22656908 27.55076686 -35.8125 12.5 C-24.65738293 5.14735418 -13.49828678 -0.0872347 0 0 Z M-23.6875 27.3125 C-25.4369618 33.71465071 -25.4369618 33.71465071 -25.6875 40.3125 C-22.9572611 40.4208667 -20.23135457 40.49996694 -17.5 40.5625 C-16.73107422 40.59601563 -15.96214844 40.62953125 -15.16992188 40.6640625 C-11.21529077 40.73195316 -9.16577992 40.5964787 -5.6875 38.53125 C-3.02830458 35.58120508 -2.9120889 33.20537433 -2.6875 29.3125 C-5.78835571 27.24526286 -6.41681681 27.06752577 -9.91796875 27.1171875 C-10.72041016 27.12363281 -11.52285156 27.13007813 -12.34960938 27.13671875 C-13.18298828 27.15347656 -14.01636719 27.17023438 -14.875 27.1875 C-16.1424707 27.20103516 -16.1424707 27.20103516 -17.43554688 27.21484375 C-19.51965243 27.23839297 -21.60361217 27.27426353 -23.6875 27.3125 Z M-30.6875 66.3125 C-32.15420113 71.53762279 -32.91327402 75.8939234 -32.6875 81.3125 C-29.64528935 81.39382642 -26.6052762 81.45315374 -23.5625 81.5 C-22.7065625 81.52513672 -21.850625 81.55027344 -20.96875 81.57617188 C-15.78140289 81.63602588 -12.1418621 81.28901299 -7.6875 78.3125 C-5.37182616 74.83898925 -5.09162423 73.39850528 -5.6875 69.3125 C-10.1969848 65.29887141 -15.32496583 65.96858563 -21 66.125 C-21.93134766 66.13853516 -22.86269531 66.15207031 -23.82226562 66.16601562 C-26.11127646 66.20123118 -28.39908458 66.25047901 -30.6875 66.3125 Z " fill="#1F52A2" transform="translate(91.6875,201.6875)"/>
<path d="M0 0 C0.78769775 -0.00095673 1.57539551 -0.00191345 2.38696289 -0.00289917 C4.05127034 -0.00357924 5.71558047 -0.00173703 7.37988281 0.00244141 C9.92779496 0.00779212 12.47553083 0.00249058 15.0234375 -0.00390625 C16.64062539 -0.00324544 18.25781317 -0.00196421 19.875 0 C21.01884155 -0.00303635 21.01884155 -0.00303635 22.18579102 -0.00613403 C25.36896916 0.00798156 27.89522317 0.11872022 30.9375 1.1328125 C30.9375 1.7928125 30.9375 2.4528125 30.9375 3.1328125 C31.45594482 2.92060059 31.97438965 2.70838867 32.50854492 2.48974609 C38.84687358 0.11208935 44.51796353 -0.33907537 51.25 -0.2421875 C52.77294678 -0.22696045 52.77294678 -0.22696045 54.32666016 -0.21142578 C65.41036786 0.01789231 75.45319762 1.38549401 83.9375 9.1328125 C89.13331791 15.93067426 89.63972968 22.86430528 88.9375 31.1328125 C86.63956792 41.05987908 81.23038116 48.26892435 73.9375 55.1328125 C74.515 55.3596875 75.0925 55.5865625 75.6875 55.8203125 C79.07972063 57.79910787 81.19243471 60.64268192 82.9375 64.1328125 C83.05343506 63.48207764 83.16937012 62.83134277 83.28881836 62.16088867 C83.81523979 59.21361268 84.34507995 56.26696136 84.875 53.3203125 C85.14860352 51.78407227 85.14860352 51.78407227 85.42773438 50.21679688 C85.60498047 49.23388672 85.78222656 48.25097656 85.96484375 47.23828125 C86.20835571 45.87932739 86.20835571 45.87932739 86.45678711 44.49291992 C86.9375 42.1328125 86.9375 42.1328125 87.9375 39.1328125 C91.13662001 38.06643916 93.4512746 38.00359544 96.8125 38 C97.96234375 37.99871094 99.1121875 37.99742187 100.296875 37.99609375 C102.09898437 38.00189453 102.09898437 38.00189453 103.9375 38.0078125 C105.13890625 38.00394531 106.3403125 38.00007813 107.578125 37.99609375 C108.72796875 37.99738281 109.8778125 37.99867188 111.0625 38 C112.64417969 38.00169189 112.64417969 38.00169189 114.2578125 38.00341797 C116.9375 38.1328125 116.9375 38.1328125 119.9375 39.1328125 C120.2675 39.7928125 120.5975 40.4528125 120.9375 41.1328125 C121.95070312 40.68228516 121.95070312 40.68228516 122.984375 40.22265625 C123.87640625 39.84238281 124.7684375 39.46210938 125.6875 39.0703125 C127.01007813 38.49603516 127.01007813 38.49603516 128.359375 37.91015625 C131.09006309 37.08681242 132.30651347 37.1554133 134.9375 38.1328125 C134.2775 38.1328125 133.6175 38.1328125 132.9375 38.1328125 C133.2675 38.7928125 133.5975 39.4528125 133.9375 40.1328125 C135.83283342 40.59804313 135.83283342 40.59804313 138 40.7578125 C139.9490625 40.9434375 139.9490625 40.9434375 141.9375 41.1328125 C141.3443511 50.60274147 139.67322278 59.82104188 137.9375 69.1328125 C137.1640625 69.08640625 136.390625 69.04 135.59375 68.9921875 C128.86100486 68.75887455 123.25878627 68.64826053 117.9375 73.1328125 C112.93019686 80.3988102 111.56146927 88.58469499 110.1875 97.1328125 C109.77830423 99.5498633 109.36695973 101.96655164 108.953125 104.3828125 C108.78071289 105.43984375 108.60830078 106.496875 108.43066406 107.5859375 C107.9375 110.1328125 107.9375 110.1328125 106.9375 112.1328125 C97.6975 112.1328125 88.4575 112.1328125 78.9375 112.1328125 C78.9375 99.7578125 78.9375 99.7578125 79.9375 94.1328125 C78.6175 94.1328125 77.2975 94.1328125 75.9375 94.1328125 C75.4425 96.1128125 75.4425 96.1128125 74.9375 98.1328125 C75.5975 98.4628125 76.2575 98.7928125 76.9375 99.1328125 C67.88940155 109.90132403 54.54545208 114.42237846 40.9375 116.1328125 C38.67018599 116.21934501 36.40080007 116.26063443 34.13183594 116.26220703 C32.8206781 116.26535919 31.50952026 116.26851135 30.15863037 116.27175903 C28.74637823 116.26996968 27.33412641 116.26791883 25.921875 116.265625 C24.45933008 116.26629941 22.99678526 116.26727058 21.53424072 116.26852417 C18.48147506 116.26999282 15.42873879 116.26787219 12.37597656 116.26318359 C8.46302853 116.25746649 4.55014879 116.26078304 0.63720322 116.26675606 C-2.37734494 116.27036691 -5.39187684 116.26922101 -8.40642548 116.26662827 C-9.84972898 116.2659615 -11.29303397 116.26677869 -12.73633575 116.26910782 C-14.74902824 116.27164509 -16.76172591 116.26709273 -18.77441406 116.26220703 C-19.9191217 116.26141144 -21.06382935 116.26061584 -22.2432251 116.25979614 C-25.0625 116.1328125 -25.0625 116.1328125 -28.0625 115.1328125 C-29.34058753 108.24365902 -28.58127855 102.43733762 -27.33203125 95.58203125 C-27.14033859 94.48744095 -26.94864594 93.39285065 -26.75114441 92.26509094 C-26.34393692 89.95704751 -25.93092324 87.6500218 -25.51245117 85.34399414 C-24.87939885 81.84462834 -24.26944072 78.34180103 -23.66210938 74.83789062 C-23.26179834 72.58569148 -22.86014861 70.33372979 -22.45703125 68.08203125 C-22.27767532 67.04833908 -22.0983194 66.01464691 -21.91352844 64.94963074 C-20.77967704 58.79216131 -19.13521757 53.26805953 -16.65800476 47.50959778 C-15.91698454 44.55202957 -16.56371463 43.69679914 -18.0625 41.1328125 C-17.9609375 37.98046875 -17.9609375 37.98046875 -17.4375 34.1953125 C-17.2974353 33.17304565 -17.2974353 33.17304565 -17.15454102 32.13012695 C-13.94812418 9.78968503 -13.94812418 9.78968503 -11.0625 1.1328125 C-7.3384209 -0.1085472 -3.87805854 -0.01029437 0 0 Z M28.9375 8.1328125 C27.82246094 8.6690625 26.70742187 9.2053125 25.55859375 9.7578125 C16.37774947 14.46856855 9.13496177 20.8122098 1.9375 28.1328125 C1.1640625 28.90753906 0.390625 29.68226563 -0.40625 30.48046875 C-14.5360523 45.45262465 -17.57173058 63.47934925 -20.78222656 83.02929688 C-21.3172463 86.28670985 -21.86456781 89.54187539 -22.4140625 92.796875 C-22.76111857 94.86967427 -23.10749786 96.94258699 -23.453125 99.015625 C-23.61556702 99.98742706 -23.77800903 100.95922913 -23.94537354 101.96047974 C-24.09262878 102.85926849 -24.23988403 103.75805725 -24.39160156 104.68408203 C-24.52165588 105.47315948 -24.65171021 106.26223694 -24.78570557 107.07522583 C-25.12916144 109.28232867 -25.12916144 109.28232867 -25.0625 112.1328125 C-16.82937515 112.20283953 -8.59637821 112.25588767 -0.36302757 112.28824902 C3.46154043 112.30379393 7.2859022 112.32482301 11.11035156 112.35913086 C14.81271721 112.39212933 18.51488661 112.4097491 22.21738815 112.41744423 C23.6181382 112.42291617 25.01887956 112.43359726 26.41954422 112.45000267 C42.31733191 112.62851607 58.93603568 110.52660774 70.9375 99.1328125 C77.72768431 90.99073629 80.58520149 82.57068381 80.2890625 72.00390625 C79.60576128 66.42361298 77.49866119 62.69397369 73.5625 58.7578125 C70.7546703 57.01963221 68.11110513 56.01846975 64.9375 55.1328125 C65.50597656 54.7203125 66.07445313 54.3078125 66.66015625 53.8828125 C75.30684169 47.41584242 82.20527068 40.89909709 84.9375 30.1328125 C85.71374663 24.15218504 85.50025622 19.18962778 81.9375 14.1328125 C74.91541769 6.57199901 66.50002152 4.30216268 56.3984375 3.89453125 C46.58219918 3.67891668 37.95058234 3.78081664 28.9375 8.1328125 Z " fill="#F7FBFD" transform="translate(41.0625,197.8671875)"/>
<path d="M0 0 C0.97646484 -0.00773438 1.95292969 -0.01546875 2.95898438 -0.0234375 C12.15703829 0.00117268 21.36150086 0.78714365 28.4375 7.25 C33.33145614 13.97719704 31.24035014 23.07382437 30.05075073 30.74346924 C28.9150265 37.53282826 27.64442564 44.29713116 26.375 51.0625 C25.99352249 53.12293253 25.6126582 55.18347869 25.23242188 57.24414062 C24.30784458 62.24743164 23.3749872 67.2491126 22.4375 72.25 C20.99774913 72.26397816 19.55795898 72.27394838 18.11816406 72.28222656 C16.91549896 72.29119965 16.91549896 72.29119965 15.6885376 72.300354 C8.79396487 72.14612764 3.65080237 69.54330784 -1.5625 65.25 C-4.4711667 65.66295885 -6.75646038 66.78801549 -9.3125 68.1875 C-18.5587264 72.84448216 -30.02785832 74.31367683 -40.0625 71.1875 C-44.30826299 69.21527461 -47.32597992 66.36056966 -49.5625 62.25 C-51.52951037 55.56437487 -50.67480464 49.41718669 -47.5625 43.25 C-43.58396293 36.54717652 -37.71556263 33.82094964 -30.5625 31.25 C-25.61989669 30.06246933 -20.64937948 29.2581089 -15.625 28.5 C-13.05324235 28.08943681 -10.48162124 27.67801721 -7.91015625 27.265625 C-6.78617432 27.09321289 -5.66219238 26.92080078 -4.50415039 26.74316406 C-2.14293361 26.34730898 0.12986933 25.87829962 2.4375 25.25 C2.4375 23.27 2.4375 21.29 2.4375 19.25 C-0.63390431 17.43794142 -2.59027299 17.02481614 -6.125 17.4375 C-6.88941406 17.51355469 -7.65382812 17.58960938 -8.44140625 17.66796875 C-10.9556283 18.35787499 -11.9294962 19.24969444 -13.5625 21.25 C-13.8925 21.91 -14.2225 22.57 -14.5625 23.25 C-23.1425 23.25 -31.7225 23.25 -40.5625 23.25 C-39.53594005 16.06408032 -38.69998024 13.0560299 -33.5625 8.25 C-22.99579275 1.36263542 -12.36053922 -0.09829455 0 0 Z M-16.5625 49.25 C-16.8925 50.24 -17.2225 51.23 -17.5625 52.25 C-14.53179372 53.53222189 -13.52653086 53.23589446 -10.375 52 C-7.28959196 50.4953127 -7.28959196 50.4953127 -6.5625 47.25 C-10.51029314 47.25 -12.9587102 47.72839986 -16.5625 49.25 Z " fill="#2053A2" transform="translate(226.5625,237.75)"/>
<path d="M0 0 C5.31254221 4.99218791 7.99738764 9.99085673 10 17 C10 22.94 10 28.88 10 35 C-7.49 35 -24.98 35 -43 35 C-40.92656294 43.27621327 -40.92656294 43.27621327 -38.12109375 46.03515625 C-35.6227416 47.17160741 -33.80559386 47.43327335 -31.0625 47.4375 C-30.22847656 47.45683594 -29.39445312 47.47617187 -28.53515625 47.49609375 C-25.82687197 47.18794013 -25.82687197 47.18794013 -23.72753906 44.9934082 C-20.44511769 42.59446706 -18.84035065 42.5302394 -14.82421875 42.609375 C-13.66728516 42.62226563 -12.51035156 42.63515625 -11.31835938 42.6484375 C-10.12017578 42.68195313 -8.92199219 42.71546875 -7.6875 42.75 C-6.46998047 42.76804687 -5.25246094 42.78609375 -3.99804688 42.8046875 C-0.99789578 42.85174869 2.00064889 42.9174869 5 43 C2.57637721 50.65112084 -1.45880331 54.7165613 -8.375 58.75 C-20.76933329 65.17982478 -36.07843779 67.56717598 -49.6875 63.75 C-57.05447897 61.04960399 -62.5543699 56.43928895 -67 50 C-70.69458357 41.24517821 -70.19859066 30.22395597 -67.0390625 21.3359375 C-61.16248586 8.12468626 -53.1183495 0.94827122 -40 -5 C-27.5009521 -9.77159599 -10.51073665 -8.59969362 0 0 Z M-33 17 C-29.04 17 -25.08 17 -21 17 C-21.66 16.01 -22.32 15.02 -23 14 C-28.01786432 13.45259662 -29.32714881 13.32714881 -33 17 Z " fill="#1F53A2" transform="translate(411,245)"/>
<path d="M0 0 C7.61349219 5.97496697 10.38864932 13.13460775 11.73046875 22.52734375 C2.82046875 22.52734375 -6.08953125 22.52734375 -15.26953125 22.52734375 C-15.92953125 20.54734375 -16.58953125 18.56734375 -17.26953125 16.52734375 C-20.98511039 14.05029099 -23.96274302 13.87480008 -28.26953125 14.52734375 C-33.20206663 16.94707809 -35.29548165 19.43637373 -37.26953125 24.52734375 C-38.234278 28.43322817 -38.43393884 32.13426505 -38.45703125 36.15234375 C-38.47830078 37.84230469 -38.47830078 37.84230469 -38.5 39.56640625 C-38.49746518 42.71460673 -38.49746518 42.71460673 -36.26953125 45.52734375 C-32.65022427 46.73377941 -30.0772212 46.85002934 -26.26953125 46.52734375 C-22.42660214 44.56820342 -20.64462124 43.4177651 -18.953125 39.40234375 C-16.26953125 36.52734375 -16.26953125 36.52734375 -13.41918945 36.04150391 C-9.7695514 35.93550748 -6.16772059 36.00611622 -2.51953125 36.15234375 C-1.24980469 36.17941406 0.01992188 36.20648438 1.328125 36.234375 C4.46394781 36.30510785 7.59635538 36.40377883 10.73046875 36.52734375 C7.65354517 46.9215496 2.50689001 54.54232353 -6.90625 60.28125 C-19.20199912 66.76446317 -34.15406078 69.04169907 -47.76953125 65.40234375 C-55.19806965 62.70220949 -61.5542771 58.66063171 -65.26953125 51.52734375 C-68.78824864 42.76253861 -68.65355184 31.41667999 -65.64453125 22.46484375 C-63.53323426 17.56811635 -60.77906484 13.52124396 -57.26953125 9.52734375 C-56.76808594 8.92148438 -56.26664062 8.315625 -55.75 7.69140625 C-42.56921217 -6.99667362 -16.57285058 -10.75381182 0 0 Z " fill="#1F52A2" transform="translate(326.26953125,243.47265625)"/>
<path d="M0 0 C-3.1251765 19.10210128 -6.32929997 38.19128165 -9.66552734 57.25772095 C-10.01182289 59.24290715 -10.35543728 61.22856304 -10.69628906 63.21469116 C-11.17929196 66.02471528 -11.67238731 68.83279557 -12.16796875 71.640625 C-12.3786927 72.88393333 -12.3786927 72.88393333 -12.59367371 74.15235901 C-14.02464579 82.13549108 -16.03115909 89.1638 -22 95 C-27.94088497 98.77179918 -33.17716756 100.03819978 -40.1640625 100.015625 C-41.06850098 100.01336914 -41.97293945 100.01111328 -42.90478516 100.00878906 C-43.59620605 100.00588867 -44.28762695 100.00298828 -45 100 C-43.34251227 89.86889266 -41.65407524 79.74326543 -39.94580078 69.62060547 C-39.29491002 65.76123714 -38.65097181 61.90078242 -38.01123047 58.03955078 C-37.17082497 52.97442681 -36.3128636 47.91251656 -35.44433594 42.85214233 C-35.10878244 40.88110903 -34.77878528 38.90912103 -34.45458984 36.93618774 C-30.42247576 12.45775674 -30.42247576 12.45775674 -22.25 5.5625 C-14.99502065 0.75760748 -8.53221207 -0.18660974 0 0 Z " fill="#2052A2" transform="translate(464,210)"/>
<path d="M0 0 C0.8031665 0.00620361 1.60633301 0.01240723 2.43383789 0.01879883 C3.04219482 0.0267749 3.65055176 0.03475098 4.27734375 0.04296875 C2.79463631 9.16991592 1.28004036 18.29109173 -0.26486206 27.40771484 C-1.11818443 32.44558706 -1.96227713 37.4847903 -2.79345703 42.52636719 C-3.72513489 48.16859131 -4.68134104 53.80625118 -5.65164185 59.44195557 C-6.03073122 61.66665159 -6.40195738 63.89270255 -6.7651062 66.12005615 C-7.28195773 69.28065308 -7.82724041 72.43516269 -8.37890625 75.58984375 C-8.52578384 76.52811005 -8.67266144 77.46637634 -8.82398987 78.43307495 C-10.08279542 85.37480312 -12.71400023 90.945081 -18.41052246 95.34735107 C-24.00142722 98.76847925 -29.47189662 100.15354133 -35.953125 100.08984375 C-36.84797607 100.08307617 -37.74282715 100.07630859 -38.66479492 100.06933594 C-39.68343628 100.05628418 -39.68343628 100.05628418 -40.72265625 100.04296875 C-39.50985576 92.78130241 -38.29258445 85.5203988 -37.07020283 78.26033878 C-36.50220344 74.88605458 -35.93552494 71.51156172 -35.37231445 68.13647461 C-34.07102162 60.34761909 -32.74523101 52.56368864 -31.37896729 44.78594971 C-30.9466094 42.32018691 -30.5193564 39.85352271 -30.09759521 37.38592529 C-29.5091036 33.97422397 -28.891819 30.56901934 -28.265625 27.1640625 C-28.09799149 26.16697769 -27.93035797 25.16989288 -27.75764465 24.14259338 C-26.35105014 16.762773 -23.66693891 10.23914012 -17.68986511 5.39573669 C-12.18838666 1.66898274 -6.65173139 -0.06682105 0 0 Z " fill="#2053A2" transform="translate(491.72265625,209.95703125)"/>
<path d="M0 0 C-0.5931489 9.46992897 -2.26427722 18.68822938 -4 28 C-4.7734375 27.95359375 -5.546875 27.9071875 -6.34375 27.859375 C-13.07649514 27.62606205 -18.67871373 27.51544803 -24 32 C-29.00730314 39.2659977 -30.37603073 47.45188249 -31.75 56 C-32.15919577 58.4170508 -32.57054027 60.83373914 -32.984375 63.25 C-33.24299316 64.83554687 -33.24299316 64.83554687 -33.50683594 66.453125 C-34 69 -34 69 -35 71 C-44.24 71 -53.48 71 -63 71 C-59.21698151 47.95797832 -55.16534561 24.97542217 -51 2 C-42.42 2 -33.84 2 -25 2 C-25.33 5.63 -25.66 9.26 -26 13 C-25.21625 11.783125 -24.4325 10.56625 -23.625 9.3125 C-17.558325 1.2948051 -9.73716399 -0.93228166 0 0 Z " fill="#1E52A3" transform="translate(183,239)"/>
<path d="M0 0 C-0.46626929 4.19642361 -2.8848226 6.43498007 -6 9 C-7.55217236 10.09807938 -9.11584594 11.17999024 -10.6875 12.25 C-22.78212574 20.55269999 -32.43385796 30.58094433 -39.5546875 43.3984375 C-41 46 -41 46 -43 49 C-43.185625 47.8553125 -43.185625 47.8553125 -43.375 46.6875 C-43.88102792 43.79732864 -43.88102792 43.79732864 -46 41 C-47.03249583 36.07524962 -46.93906896 32.04951645 -46.07421875 27.11328125 C-45.85443359 25.84548828 -45.63464844 24.57769531 -45.40820312 23.27148438 C-45.28968994 22.62139404 -45.17117676 21.97130371 -45.04907227 21.30151367 C-44.68690132 19.30920664 -44.34323225 17.31434002 -44.00195312 15.31835938 C-41.92800198 3.59784582 -41.92800198 3.59784582 -40 1 C-34.24868583 -0.92118504 -27.6299294 -0.37305459 -21.59790039 -0.55761719 C-19.44060758 -0.62490307 -17.2838611 -0.70268306 -15.12695312 -0.78125 C-13.75002058 -0.82615639 -12.37306783 -0.87044817 -10.99609375 -0.9140625 C-9.75013428 -0.9548291 -8.5041748 -0.9955957 -7.22045898 -1.03759766 C-4.55606896 -1.0064919 -2.51261018 -0.8125454 0 0 Z " fill="#F5FBF2" transform="translate(70,201)"/>
<path d="M0 0 C11.55 0 23.1 0 35 0 C31.90171263 2.32371553 29.2726129 3.95897682 25.875 5.6875 C14.62547756 11.78285877 4.78769083 20.57148932 -2.2265625 31.3359375 C-2.81179687 32.21507812 -3.39703125 33.09421875 -4 34 C-4.33 34 -4.66 34 -5 34 C-4.51362931 22.47301457 -2.13900475 11.31602513 0 0 Z " fill="#A6CE65" transform="translate(33,202)"/>
<path d="M0 0 C4.2290362 -0.08725659 8.45784012 -0.1404789 12.6875 -0.1875 C13.88568359 -0.21263672 15.08386719 -0.23777344 16.31835938 -0.26367188 C17.47529297 -0.27333984 18.63222656 -0.28300781 19.82421875 -0.29296875 C20.88729248 -0.3086792 21.95036621 -0.32438965 23.0456543 -0.34057617 C27.37857543 0.1589218 29.96075795 1.96075795 33 5 C33.78213482 9.54729549 33.37152293 13.19751048 31.4375 17.375 C27.78179714 21.31191077 24.36742385 22.80706498 19.08813477 23.23730469 C15.74124801 23.2947966 12.4090057 23.26169768 9.0625 23.1875 C7.32129883 23.16719727 7.32129883 23.16719727 5.54492188 23.14648438 C2.69612948 23.1113141 -0.15168844 23.06209287 -3 23 C-2.41993763 15.24548194 -1.37559416 7.65257723 0 0 Z M4 4 C2.53329887 9.22512279 1.77422598 13.5814234 2 19 C5.04221065 19.08132642 8.0822238 19.14065374 11.125 19.1875 C11.9809375 19.21263672 12.836875 19.23777344 13.71875 19.26367188 C18.90609711 19.32352588 22.5456379 18.97651299 27 16 C29.31567384 12.52648925 29.59587577 11.08600528 29 7 C24.4905152 2.98637141 19.36253417 3.65608563 13.6875 3.8125 C12.75615234 3.82603516 11.82480469 3.83957031 10.86523438 3.85351562 C8.57622354 3.88873118 6.28841542 3.93797901 4 4 Z " fill="#F9FCFD" transform="translate(57,264)"/>
<path d="M0 0 C3.72901814 -0.08736736 7.45777165 -0.14051482 11.1875 -0.1875 C12.24259766 -0.21263672 13.29769531 -0.23777344 14.38476562 -0.26367188 C15.91713867 -0.27817383 15.91713867 -0.27817383 17.48046875 -0.29296875 C18.41785889 -0.3086792 19.35524902 -0.32438965 20.32104492 -0.34057617 C23.81538997 0.10366071 26.49463794 1.49463794 29 4 C29.55175544 7.74405478 29.8173257 11.44381186 28.0234375 14.859375 C25.70522795 17.73224819 23.40814797 19.65993281 20 21 C17.43457031 21.22705078 17.43457031 21.22705078 14.578125 21.1953125 C13.04091797 21.18564453 13.04091797 21.18564453 11.47265625 21.17578125 C10.40917969 21.15902344 9.34570312 21.14226562 8.25 21.125 C6.63158203 21.11146484 6.63158203 21.11146484 4.98046875 21.09765625 C2.32008722 21.07411305 -0.33984336 21.04122799 -3 21 C-2.41523944 13.90593106 -1.36766005 6.98436101 0 0 Z M4 4 C2.2505382 10.40215071 2.2505382 10.40215071 2 17 C4.7302389 17.1083667 7.45614543 17.18746694 10.1875 17.25 C10.95642578 17.28351563 11.72535156 17.31703125 12.51757812 17.3515625 C16.47220923 17.41945316 18.52172008 17.2839787 22 15.21875 C24.65919542 12.26870508 24.7754111 9.89287433 25 6 C21.89914429 3.93276286 21.27068319 3.75502577 17.76953125 3.8046875 C16.96708984 3.81113281 16.16464844 3.81757813 15.33789062 3.82421875 C14.50451172 3.84097656 13.67113281 3.85773438 12.8125 3.875 C11.5450293 3.88853516 11.5450293 3.88853516 10.25195312 3.90234375 C8.16784757 3.92589297 6.08388783 3.96176353 4 4 Z " fill="#F5FCFD" transform="translate(64,225)"/>
<path d="M0 0 C1.24742813 4.35070301 0.36442607 6.192783 -1.7734375 10.09765625 C-3.92020731 13.42720052 -6.07447552 15.43643186 -9.921875 16.5625 C-13.43532703 17.19650638 -15.59574332 17.14317424 -19 15.9375 C-21 14 -21 14 -21.5 11 C-20.94485565 7.66913389 -20.54283766 7.05282472 -18 5 C-16.00708008 4.20043945 -16.00708008 4.20043945 -13.76953125 3.61328125 C-12.96708984 3.39736328 -12.16464844 3.18144531 -11.33789062 2.95898438 C-10.50451172 2.74564453 -9.67113281 2.53230469 -8.8125 2.3125 C-7.5450293 1.97508789 -7.5450293 1.97508789 -6.25195312 1.63085938 C-4.1703684 1.07812219 -2.08548196 0.53784601 0 0 Z M-16 9 C-16.33 9.99 -16.66 10.98 -17 12 C-13.96929372 13.28222189 -12.96403086 12.98589446 -9.8125 11.75 C-6.72709196 10.2453127 -6.72709196 10.2453127 -6 7 C-9.94779314 7 -12.3962102 7.47839986 -16 9 Z " fill="#F1FAFD" transform="translate(226,278)"/>
<path d="M0 0 C3.0625 2.125 3.0625 2.125 5 5 C5.33 6.98 5.66 8.96 6 11 C-2.25 11 -10.5 11 -19 11 C-16.66666667 4 -16.66666667 4 -13 1 C-8.64844003 -0.45051999 -4.54311788 -0.63763058 0 0 Z M-12 7 C-8.04 7 -4.08 7 0 7 C-0.66 6.01 -1.32 5.02 -2 4 C-7.01786432 3.45259662 -8.32714881 3.32714881 -12 7 Z " fill="#F5FCFD" transform="translate(390,255)"/>
<path d="M0 0 C8.58 0 17.16 0 26 0 C25.67 2.64 25.34 5.28 25 8 C24.01 8.495 24.01 8.495 23 9 C23 6.69 23 4.38 23 2 C22.01 2.33 21.02 2.66 20 3 C16.81011064 3.02514552 13.63693299 2.97323218 10.44921875 2.87304688 C6.70797371 2.81032383 5.20300333 2.86466445 2 5 C0.89485234 8.31544299 0.67892369 11.20410111 0.4375 14.6875 C0.35371094 15.86699219 0.26992187 17.04648437 0.18359375 18.26171875 C0.12300781 19.16535156 0.06242188 20.06898438 0 21 C-0.99 21.33 -1.98 21.66 -3 22 C-2.88205295 20.39529935 -2.75509534 18.79126148 -2.625 17.1875 C-2.52058594 15.84751953 -2.52058594 15.84751953 -2.4140625 14.48046875 C-1.83597908 9.62129588 -0.87536491 4.81450701 0 0 Z " fill="#2A5292" transform="translate(132,241)"/>
<path d="M0 0 C0.90105469 0.01804688 1.80210937 0.03609375 2.73046875 0.0546875 C3.41753906 0.07789063 4.10460937 0.10109375 4.8125 0.125 C4.2193511 9.59492897 2.54822278 18.81322938 0.8125 28.125 C0.02746094 28.10179687 -0.75757813 28.07859375 -1.56640625 28.0546875 C-7.53542603 27.95215219 -12.56153518 28.07919461 -18.1875 30.125 C-18.1875 29.135 -18.1875 28.145 -18.1875 27.125 C-15.00203711 25.53226856 -11.55550652 26.02358167 -8.0625 26.0625 C-4.164375 26.0934375 -4.164375 26.0934375 -0.1875 26.125 C0.1425 20.515 0.4725 14.905 0.8125 9.125 C1.4725 9.125 2.1325 9.125 2.8125 9.125 C2.4825 6.815 2.1525 4.505 1.8125 2.125 C-1.4875 2.125 -4.7875 2.125 -8.1875 2.125 C-4.87379 -0.08414 -3.8428979 -0.09981553 0 0 Z " fill="#2B548F" transform="translate(178.1875,238.875)"/>
<path d="M0 0 C0.66 0.33 1.32 0.66 2 1 C2.07153047 3.50356659 2.05975086 5.73858997 1.5 8.1875 C0.68368713 12.77925988 -0.13104194 18.73791612 2 23 C0.35 23.33 -1.3 23.66 -3 24 C-4.26921372 18.69468667 -3.64496778 14.43496584 -2.625 9.1875 C-2.48578125 8.41212891 -2.3465625 7.63675781 -2.203125 6.83789062 C-1.14773261 1.14773261 -1.14773261 1.14773261 0 0 Z " fill="#FCFDF7" transform="translate(27,217)"/>
<path d="M0 0 C0.66 0.33 1.32 0.66 2 1 C1.69073032 3.75039833 1.3777116 6.50028178 1.0625 9.25 C0.97548828 10.02730469 0.88847656 10.80460937 0.79882812 11.60546875 C0.71181641 12.35957031 0.62480469 13.11367188 0.53515625 13.890625 C0.456604 14.58188477 0.37805176 15.27314453 0.29711914 15.98535156 C-0.00544983 18.03695313 -0.46412384 19.99782535 -1 22 C-0.06148193 21.9388501 -0.06148193 21.9388501 0.89599609 21.87646484 C3.72176882 21.69844274 6.54823861 21.53652922 9.375 21.375 C10.35984375 21.31054688 11.3446875 21.24609375 12.359375 21.1796875 C13.30039063 21.128125 14.24140625 21.0765625 15.2109375 21.0234375 C16.08024902 20.97106934 16.94956055 20.91870117 17.84521484 20.86474609 C20 21 20 21 22 23 C13.75 23 5.5 23 -3 23 C-1.875 10.625 -1.875 10.625 -0.9375 5.3125 C-0.67259766 3.79076172 -0.67259766 3.79076172 -0.40234375 2.23828125 C-0.26957031 1.49964844 -0.13679688 0.76101563 0 0 Z " fill="#E6F9FD" transform="translate(57,264)"/>
<path d="M0 0 C1.9375 0.8125 1.9375 0.8125 4 2 C5.54763841 6.64291524 5.38531073 11.07344635 4.4375 15.8125 C2.23205939 19.16860528 -0.22714933 19.82484979 -4 21 C-7.9375 21.1875 -7.9375 21.1875 -11 21 C-11 20.67 -11 20.34 -11 20 C-10.39671875 19.84144531 -9.7934375 19.68289062 -9.171875 19.51953125 C-5.36428908 18.40796181 -2.51836891 17.4298669 0.5625 14.875 C2.53067014 10.93865972 2.69748057 7.3308677 2 3 C1.34 2.01 0.68 1.02 0 0 Z " fill="#305397" transform="translate(90,226)"/>
<path d="M0 0 C11.55 0 23.1 0 35 0 C31.66754467 2.4993415 28.79082803 4.3518139 25 6 C24.34 5.67 23.68 5.34 23 5 C23.66 3.68 24.32 2.36 25 1 C21.20771856 1.10952116 17.4164616 1.24023241 13.625 1.375 C12.54476562 1.4059375 11.46453125 1.436875 10.3515625 1.46875 C9.3203125 1.50742188 8.2890625 1.54609375 7.2265625 1.5859375 C5.79691162 1.63306885 5.79691162 1.63306885 4.33837891 1.68115234 C1.81104824 1.78555796 1.81104824 1.78555796 0 4 C0 2.68 0 1.36 0 0 Z " fill="#ABC777" transform="translate(33,202)"/>
<path d="M0 0 C1.9375 0.8125 1.9375 0.8125 4 2 C5.19126781 5.57380342 4.7349445 7.50883302 4.0625 11.1875 C3.86785156 12.27417969 3.67320312 13.36085937 3.47265625 14.48046875 C3.31667969 15.31191406 3.16070312 16.14335937 3 17 C2.34 17 1.68 17 1 17 C1.33 15.35 1.66 13.7 2 12 C0.68 12.99 -0.64 13.98 -2 15 C-1.47462276 9.9697924 -0.89405214 4.98114761 0 0 Z " fill="#EDFBFD" transform="translate(460,229)"/>
<path d="M0 0 C0.33 0 0.66 0 1 0 C1 3.63 1 7.26 1 11 C8.92 11 16.84 11 25 11 C25 9.02 25 7.04 25 5 C25.66 5 26.32 5 27 5 C26.67 7.31 26.34 9.62 26 12 C16.76 12 7.52 12 -2 12 C-1.34 8.04 -0.68 4.08 0 0 Z " fill="#284B8F" transform="translate(122,298)"/>
<path d="M0 0 C-0.33 0.99 -0.66 1.98 -1 3 C-2.98 3.33 -4.96 3.66 -7 4 C-6.67 4.66 -6.34 5.32 -6 6 C-6.763125 6.2475 -7.52625 6.495 -8.3125 6.75 C-11.98836546 8.45970486 -13.34234675 10.56138353 -15 14.1875 C-16 16 -16 16 -19 17 C-17.59445027 12.76815568 -15.57219402 10.07917939 -12.5625 6.8125 C-11.78003906 5.95269531 -10.99757813 5.09289062 -10.19140625 4.20703125 C-6.75569354 0.74682148 -4.80368165 -0.25965847 0 0 Z " fill="#35538B" transform="translate(366,245)"/>
<path d="M0 0 C0.33 0 0.66 0 1 0 C1 1.65 1 3.3 1 5 C4.27081471 5.02902429 7.5415963 5.04680684 10.8125 5.0625 C12.2056543 5.07506836 12.2056543 5.07506836 13.62695312 5.08789062 C14.51962891 5.09111328 15.41230469 5.09433594 16.33203125 5.09765625 C17.15421143 5.10289307 17.9763916 5.10812988 18.82348633 5.11352539 C21.18172596 5.08741524 21.18172596 5.08741524 24 4 C24.33 3.34 24.66 2.68 25 2 C25.66 2.33 26.32 2.66 27 3 C26.34 4.32 25.68 5.64 25 7 C16.42 7 7.84 7 -1 7 C-0.67 4.69 -0.34 2.38 0 0 Z " fill="#2D508C" transform="translate(187,254)"/>
<path d="M0 0 C0 0.99 0 1.98 0 3 C-6.37457348 3.95468258 -12.56061653 4.1202324 -19 4.0625 C-19.96550781 4.05798828 -20.93101562 4.05347656 -21.92578125 4.04882812 C-24.28392089 4.03715417 -26.64192602 4.02078021 -29 4 C-29 3.34 -29 2.68 -29 2 C-27.7934375 2.02320313 -26.586875 2.04640625 -25.34375 2.0703125 C-23.72917291 2.08908665 -22.11458906 2.10728507 -20.5 2.125 C-19.31277344 2.15013672 -19.31277344 2.15013672 -18.1015625 2.17578125 C-11.83761197 2.22712511 -6.10036354 0 0 0 Z " fill="#F1FCFF" transform="translate(216,307)"/>
<path d="M0 0 C0.73046875 1.671875 0.73046875 1.671875 1 4 C-0.51171875 6.578125 -0.51171875 6.578125 -2.6875 9.25 C-3.39261719 10.14203125 -4.09773438 11.0340625 -4.82421875 11.953125 C-7 14 -7 14 -11 14 C-10 11 -10 11 -7.75 9.25 C-4.3837243 6.49577443 -2.42357495 3.60073992 0 0 Z " fill="#EAF7FC" transform="translate(333,289)"/>
<path d="M0 0 C0.99 0.99 1.98 1.98 3 3 C3.33 3 3.66 3 4 3 C3.67 5.97 3.34 8.94 3 12 C1.35 12 -0.3 12 -2 12 C-1.34 8.04 -0.68 4.08 0 0 Z " fill="#EBF6F9" transform="translate(491,235)"/>
<path d="M0 0 C1.32 0 2.64 0 4 0 C3.55618504 3.14806222 3.09253461 6.29288019 2.625 9.4375 C2.49867188 10.33533203 2.37234375 11.23316406 2.2421875 12.15820312 C2.11328125 13.01220703 1.984375 13.86621094 1.8515625 14.74609375 C1.73635254 15.53685303 1.62114258 16.3276123 1.50244141 17.14233398 C1.33663574 17.75536377 1.17083008 18.36839355 1 19 C0.34 19.33 -0.32 19.66 -1 20 C-1.125 14.25 -1.125 14.25 0 12 C0.07065617 9.95944995 0.08421976 7.91665743 0.0625 5.875 C0.05347656 4.77929688 0.04445313 3.68359375 0.03515625 2.5546875 C0.02355469 1.71164063 0.01195312 0.86859375 0 0 Z " fill="#2F5493" transform="translate(460,210)"/>
<path d="M0 0 C1.16337891 0.00966797 2.32675781 0.01933594 3.52539062 0.02929688 C4.74033203 0.05443359 5.95527344 0.07957031 7.20703125 0.10546875 C8.43357422 0.11900391 9.66011719 0.13253906 10.92382812 0.14648438 C13.95616789 0.18188134 16.98763121 0.23126115 20.01953125 0.29296875 C19.35953125 1.61296875 18.69953125 2.93296875 18.01953125 4.29296875 C17.68953125 3.30296875 17.35953125 2.31296875 17.01953125 1.29296875 C6.12953125 1.78796875 6.12953125 1.78796875 -4.98046875 2.29296875 C-5.31046875 2.95296875 -5.64046875 3.61296875 -5.98046875 4.29296875 C-6.97046875 3.96296875 -7.96046875 3.63296875 -8.98046875 3.29296875 C-6.35613804 -0.15967879 -4.19378209 -0.06137242 0 0 Z " fill="#2B5393" transform="translate(395.98046875,287.70703125)"/>
<path d="M0 0 C0.66 0.33 1.32 0.66 2 1 C1.54625 1.37125 1.0925 1.7425 0.625 2.125 C-1.47029394 4.54264685 -2.12013285 6.95430602 -3 10 C-3.99 10 -4.98 10 -6 10 C-6.33 12.31 -6.66 14.62 -7 17 C-7.66 17 -8.32 17 -9 17 C-8.65310247 10.2354981 -4.68483134 4.68483134 0 0 Z " fill="#2C5293" transform="translate(270,252)"/>
<path d="M0 0 C0.99 0.33 1.98 0.66 3 1 C3 1.66 3 2.32 3 3 C3.99 3.33 4.98 3.66 6 4 C6.3721042 5.32303717 6.70630173 6.65737935 7 8 C7.66 8.33 8.32 8.66 9 9 C9 9.66 9 10.32 9 11 C9.66 11 10.32 11 11 11 C11 11.66 11 12.32 11 13 C6.07019047 10.99155908 2.90596617 7.35894926 0 3 C0 2.01 0 1.02 0 0 Z " fill="#31558D" transform="translate(261,292)"/>
<path d="M0 0 C0.33 0 0.66 0 1 0 C1 4.29 1 8.58 1 13 C1.66 11.35 2.32 9.7 3 8 C4 11 4 11 2.5625 14.1875 C1.7890625 15.5796875 1.7890625 15.5796875 1 17 C0.34 17 -0.32 17 -1 17 C-1.33 17.66 -1.66 18.32 -2 19 C-1.45118943 12.64780958 -0.83488387 6.32126362 0 0 Z " fill="#E1F2FB" transform="translate(257,258)"/>
<path d="M0 0 C0.99 0 1.98 0 3 0 C2.80664062 0.52207031 2.61328125 1.04414063 2.4140625 1.58203125 C0.2712215 7.63926991 -0.99288223 13.66108225 -2 20 C-2.33 20 -2.66 20 -3 20 C-3.41640288 12.7515055 -2.44166784 6.83085645 0 0 Z " fill="#28548F" transform="translate(154,272)"/>
<path d="M0 0 C1 3 1 3 0 6 C-0.66 6 -1.32 6 -2 6 C-3.7143618 7.95927063 -5.38405168 9.95880212 -7 12 C-7.66 11.34 -8.32 10.68 -9 10 C-6.03 6.7 -3.06 3.4 0 0 Z " fill="#2E5196" transform="translate(45,224)"/>
<path d="M0 0 C0.99 0.33 1.98 0.66 3 1 C3 3.97 3 6.94 3 10 C2.67 9.01 2.34 8.02 2 7 C0.35 7.66 -1.3 8.32 -3 9 C-2.67 7.02 -2.34 5.04 -2 3 C-1.34 3 -0.68 3 0 3 C0 2.01 0 1.02 0 0 Z " fill="#EFF3FA" transform="translate(339,274)"/>
<path d="M0 0 C0.66 0 1.32 0 2 0 C1.41523944 7.09406894 0.36766005 14.01563899 -1 21 C-1.33 21 -1.66 21 -2 21 C-2.89379624 15.7266022 -3.21620257 12.92489461 -1 8 C-0.5403002 5.3367392 -0.27372006 2.69158059 0 0 Z " fill="#305494" transform="translate(487,248)"/>
<path d="M0 0 C0.33 0 0.66 0 1 0 C1 3.63 1 7.26 1 11 C3.31 11 5.62 11 8 11 C8 11.33 8 11.66 8 12 C4.7 12 1.4 12 -2 12 C-1.34 8.04 -0.68 4.08 0 0 Z " fill="#33588F" transform="translate(122,298)"/>
<path d="M0 0 C2.64 0 5.28 0 8 0 C7.34 3.96 6.68 7.92 6 12 C5.67 12 5.34 12 5 12 C4.80587819 10.52168779 4.61987869 9.04230684 4.4375 7.5625 C4.33308594 6.73878906 4.22867187 5.91507813 4.12109375 5.06640625 C4.08113281 4.38449219 4.04117187 3.70257813 4 3 C4.33 2.67 4.66 2.34 5 2 C3.35 1.67 1.7 1.34 0 1 C0 0.67 0 0.34 0 0 Z " fill="#2B518E" transform="translate(488,210)"/>
<path d="M0 0 C0.66 0.99 1.32 1.98 2 3 C1.34 3.66 0.68 4.32 0 5 C-0.66 5 -1.32 5 -2 5 C-3.485 5.309375 -3.485 5.309375 -5 5.625 C-5.99 5.74875 -6.98 5.8725 -8 6 C-8.66 5.34 -9.32 4.68 -10 4 C-6.7 2.68 -3.4 1.36 0 0 Z " fill="#E4F7FB" transform="translate(102,303)"/>
<path d="M0 0 C0.66 0.33 1.32 0.66 2 1 C-2.625 6.875 -2.625 6.875 -6 8 C-6.66 7.34 -7.32 6.68 -8 6 C-5.36 4.02 -2.72 2.04 0 0 Z " fill="#F4FEE3" transform="translate(56,208)"/>
<path d="M0 0 C0.33 0 0.66 0 1 0 C1 3.63 1 7.26 1 11 C0.01 11.33 -0.98 11.66 -2 12 C-1.85962479 10.18706911 -1.71255111 8.3746557 -1.5625 6.5625 C-1.48128906 5.55316406 -1.40007812 4.54382813 -1.31640625 3.50390625 C-1 1 -1 1 0 0 Z " fill="#2D5495" transform="translate(131,251)"/>
<path d="M0 0 C4.455 0.99 4.455 0.99 9 2 C9 2.66 9 3.32 9 4 C10.32 4 11.64 4 13 4 C13 4.66 13 5.32 13 6 C8.11063599 4.92268251 4.13096026 3.96912769 0 1 C0 0.67 0 0.34 0 0 Z " fill="#2E578F" transform="translate(352,303)"/>
<path d="M0 0 C1.31602523 0.61754259 2.62773556 1.24428742 3.9375 1.875 C4.66839844 2.22304687 5.39929688 2.57109375 6.15234375 2.9296875 C8 4 8 4 9 6 C8.34 6 7.68 6 7 6 C6.67 6.66 6.34 7.32 6 8 C6 7.34 6 6.68 6 6 C5.01 6 4.02 6 3 6 C3 5.01 3 4.02 3 3 C2.01 2.67 1.02 2.34 0 2 C0 1.34 0 0.68 0 0 Z " fill="#2C539F" transform="translate(319,240)"/>
<path d="M0 0 C0.33 0.99 0.66 1.98 1 3 C-5.28571429 8.57142857 -5.28571429 8.57142857 -9 9 C-9 8.34 -9 7.68 -9 7 C-7.28515625 5.52734375 -7.28515625 5.52734375 -5.0625 3.9375 C-2.41985962 2.10094469 -2.41985962 2.10094469 0 0 Z " fill="#E2F6FC" transform="translate(411,296)"/>
<path d="M0 0 C3.3 0 6.6 0 10 0 C10 0.66 10 1.32 10 2 C6.7 2.33 3.4 2.66 0 3 C0 2.01 0 1.02 0 0 Z " fill="#24508F" transform="translate(296,255)"/>
<path d="M0 0 C0.66 0.33 1.32 0.66 2 1 C1.67 2.65 1.34 4.3 1 6 C-0.98 5.34 -2.96 4.68 -5 4 C-3.35 2.68 -1.7 1.36 0 0 Z " fill="#E9F3FD" transform="translate(110,249)"/>
<path d="M0 0 C0.99 0 1.98 0 3 0 C2.34 4.62 1.68 9.24 1 14 C0.67 14 0.34 14 0 14 C0 9.38 0 4.76 0 0 Z " fill="#2E569C" transform="translate(457,232)"/>
<path d="M0 0 C1.41655793 -0.0272415 2.83327045 -0.04650467 4.25 -0.0625 C5.43335937 -0.07990234 5.43335937 -0.07990234 6.640625 -0.09765625 C8.96285143 -0.00153761 10.8300721 0.15987305 13 1 C13.33 1.99 13.66 2.98 14 4 C12.04020573 3.71831703 10.08217622 3.42433283 8.125 3.125 C6.48917969 2.88136719 6.48917969 2.88136719 4.8203125 2.6328125 C2 2 2 2 0 0 Z " fill="#E3F5FD" transform="translate(100,201)"/>
<path d="M0 0 C0.33 0 0.66 0 1 0 C1.10957031 0.68707031 1.21914063 1.37414062 1.33203125 2.08203125 C1.49058594 2.98308594 1.64914062 3.88414062 1.8125 4.8125 C1.96332031 5.70582031 2.11414063 6.59914063 2.26953125 7.51953125 C3.05395393 10.18321256 3.88627799 11.25690322 6 13 C3.5625 12.625 3.5625 12.625 1 12 C-0.26237731 9.47524538 -0.09856404 7.68799534 -0.0625 4.875 C-0.05347656 3.96492188 -0.04445313 3.05484375 -0.03515625 2.1171875 C-0.02355469 1.41851562 -0.01195312 0.71984375 0 0 Z " fill="#365A9A" transform="translate(286,278)"/>
<path d="M0 0 C-0.33 0.99 -0.66 1.98 -1 3 C-2.98 3.33 -4.96 3.66 -7 4 C-6.67 4.66 -6.34 5.32 -6 6 C-6.99 6 -7.98 6 -9 6 C-8.6875 4.125 -8.6875 4.125 -8 2 C-4.77208445 -0.1519437 -3.71599191 -0.20086443 0 0 Z " fill="#2D5795" transform="translate(366,245)"/>
<path d="M0 0 C0.33 0 0.66 0 1 0 C1 1.65 1 3.3 1 5 C1.99 5 2.98 5 4 5 C4 6.98 4 8.96 4 11 C3.34 11 2.68 11 2 11 C2.33 9.35 2.66 7.7 3 6 C1.68 6.99 0.36 7.98 -1 9 C-0.67 6.03 -0.34 3.06 0 0 Z " fill="#DBF1FB" transform="translate(459,235)"/>
<path d="M0 0 C0.66 0.33 1.32 0.66 2 1 C0.625 3.5 0.625 3.5 -1 6 C-1.66 6 -2.32 6 -3 6 C-3.33 6.66 -3.66 7.32 -4 8 C-4.66 7.34 -5.32 6.68 -6 6 C-4.02 4.02 -2.04 2.04 0 0 Z " fill="#F5FDE3" transform="translate(46,215)"/>
<path d="M0 0 C0 0.99 0 1.98 0 3 C-3.63 3 -7.26 3 -11 3 C-11 2.67 -11 2.34 -11 2 C-3.375 0 -3.375 0 0 0 Z " fill="#DAEFF7" transform="translate(216,307)"/>
<path d="M0 0 C0.33 0 0.66 0 1 0 C1 2.31 1 4.62 1 7 C1.66 7.33 2.32 7.66 3 8 C1.68 9.32 0.36 10.64 -1 12 C-0.67 8.04 -0.34 4.08 0 0 Z " fill="#B5C987" transform="translate(29,224)"/>
<path d="M0 0 C0.66 0.33 1.32 0.66 2 1 C1.4375 2.9375 1.4375 2.9375 0 5 C-3.625 5.75 -3.625 5.75 -7 6 C-2.25 1.125 -2.25 1.125 0 0 Z " fill="#345898" transform="translate(61,211)"/>
<path d="M0 0 C0 1.65 0 3.3 0 5 C-1.98 5.66 -3.96 6.32 -6 7 C-6 5 -6 5 -3.5625 2.375 C-1 0 -1 0 0 0 Z " fill="#1B5296" transform="translate(24,300)"/>
<path d="M0 0 C0.99 0 1.98 0 3 0 C1.515 5.445 1.515 5.445 0 11 C-0.33 11 -0.66 11 -1 11 C-0.67 7.37 -0.34 3.74 0 0 Z " fill="#355C9C" transform="translate(428,256)"/>
<path d="M0 0 C0.66 0.33 1.32 0.66 2 1 C1.690625 1.598125 1.38125 2.19625 1.0625 2.8125 C-0.10209704 5.08956772 -0.10209704 5.08956772 -1 8 C-1.99 8.33 -2.98 8.66 -4 9 C-3.46930939 5.17902761 -2.50298434 2.93828597 0 0 Z " fill="#28508F" transform="translate(470,220)"/>
<path d="M0 0 C1.65 1.32 3.3 2.64 5 4 C4 5 4 5 1.4375 5.0625 C0.2309375 5.0315625 0.2309375 5.0315625 -1 5 C-0.67 3.35 -0.34 1.7 0 0 Z " fill="#ECFDFA" transform="translate(180,304)"/>
<path d="M0 0 C0 0.99 0 1.98 0 3 C-3.63 3.33 -7.26 3.66 -11 4 C-11 3.34 -11 2.68 -11 2 C-9.5422647 1.664061 -8.08378894 1.33133376 -6.625 1 C-5.40683594 0.7215625 -5.40683594 0.7215625 -4.1640625 0.4375 C-2 0 -2 0 0 0 Z " fill="#2A538C" transform="translate(304,289)"/>
<path d="M0 0 C0.99 0 1.98 0 3 0 C1.70700306 2.88437779 0.34058637 4.87219421 -2 7 C-1.125 2.25 -1.125 2.25 0 0 Z " fill="#285693" transform="translate(329,290)"/>
<path d="M0 0 C0.99 0.99 1.98 1.98 3 3 C2.03114628 4.68496298 1.03013277 6.35178756 0 8 C-0.33 8 -0.66 8 -1 8 C-0.67 5.36 -0.34 2.72 0 0 Z " fill="#2B569A" transform="translate(289,259)"/>
<path d="M0 0 C0 0.99 0 1.98 0 3 C-2.64 3.33 -5.28 3.66 -8 4 C-2.7826087 0 -2.7826087 0 0 0 Z " fill="#20538B" transform="translate(371,241)"/>
<path d="M0 0 C0.33 0.99 0.66 1.98 1 3 C-0.40445835 5.2636564 -2.1967913 7.0208685 -4 9 C-4.33 7.68 -4.66 6.36 -5 5 C-4.01 4.67 -3.02 4.34 -2 4 C-2 3.34 -2 2.68 -2 2 C-1.34 2 -0.68 2 0 2 C0 1.34 0 0.68 0 0 Z " fill="#E7F8FD" transform="translate(42,224)"/>
</svg>
